<?xml version="1.0" standalone="no"?>
<!DOCTYPE svg PUBLIC "-//W3C//DTD SVG 20010904//EN"
 "http://www.w3.org/TR/2001/REC-SVG-20010904/DTD/svg10.dtd">
<svg version="1.0" xmlns="http://www.w3.org/2000/svg"
 width="338.000000pt" height="338.000000pt" viewBox="0 0 338.000000 338.000000"
 preserveAspectRatio="xMidYMid meet">

<g transform="translate(0.000000,338.000000) scale(0.100000,-0.100000)"
fill="#000000" stroke="none">
<path d="M1203 2580 c-75 -30 -51 -209 40 -298 l43 -42 -14 -78 c-24 -136 2
-258 63 -298 38 -25 31 -37 -17 -29 -68 12 -116 35 -181 87 -71 57 -113 63
-152 23 -36 -35 -34 -89 6 -148 61 -93 154 -152 283 -183 l73 -17 6 -176 c6
-202 12 -186 -101 -243 -61 -30 -64 -31 -165 -24 -102 6 -103 6 -127 -19 -28
-30 -33 -92 -10 -120 25 -30 92 -55 148 -55 61 0 154 29 229 71 29 16 55 29
57 29 2 0 7 -17 11 -37 16 -85 72 -153 126 -153 15 0 41 11 57 25 34 29 50 80
59 195 l6 79 61 -2 61 -2 6 -95 c9 -134 33 -183 96 -196 112 -22 169 142 182
530 l6 189 81 22 c107 29 175 68 233 131 86 94 100 160 44 204 -41 32 -81 26
-138 -21 -59 -50 -133 -85 -195 -95 l-45 -7 42 45 c23 25 46 63 52 84 14 50
14 141 0 219 l-11 63 45 46 c54 55 77 116 77 200 0 67 -4 77 -36 94 -31 17
-137 -3 -208 -37 -60 -29 -60 -29 -95 -11 -127 64 -263 65 -394 1 l-44 -21
-54 30 c-30 16 -74 32 -99 35 -25 3 -54 8 -65 10 -11 2 -30 -1 -42 -5z m687
-250 c77 -11 110 -40 110 -96 0 -56 -36 -84 -107 -84 -32 1 -76 7 -98 15 -52
19 -127 19 -189 0 -27 -8 -73 -15 -102 -15 -46 0 -55 4 -78 31 -39 46 -32 104
17 131 12 7 42 15 67 19 70 10 308 10 380 -1z m-470 -520 c11 -6 32 -29 49
-53 42 -61 102 -117 166 -156 l55 -34 43 17 c58 22 139 90 191 163 67 92 105
96 46 4 -64 -100 -206 -211 -270 -211 -70 0 -216 119 -279 228 -32 54 -32 59
-1 42z m273 -312 c4 -10 8 -10 15 1 8 12 15 11 44 -6 66 -39 75 -119 17 -167
-61 -52 -155 -20 -175 58 -9 37 13 85 50 107 37 22 43 23 49 7z"/>
<path d="M1471 2307 c-37 -19 -41 -88 -7 -122 14 -14 32 -25 41 -25 18 0 55
35 54 53 0 10 -2 10 -6 0 -2 -7 -9 -13 -14 -13 -6 0 -7 5 -4 10 3 6 -3 10 -14
10 -31 0 -34 17 -12 54 12 18 21 36 21 40 0 10 -33 7 -59 -7z m25 -88 c10 -17
-13 -36 -27 -22 -12 12 -4 33 11 33 5 0 12 -5 16 -11z"/>
<path d="M1863 2287 c-13 -18 -23 -45 -23 -58 0 -28 37 -69 63 -69 30 0 57 37
57 78 -1 35 -2 36 -15 18 -8 -11 -13 -28 -10 -37 6 -19 -10 -35 -20 -20 -3 6
-12 8 -20 5 -14 -6 -35 24 -35 50 0 9 8 16 20 16 16 0 40 26 40 44 0 19 -39 1
-57 -27z"/>
<path d="M1641 1454 c-64 -81 40 -184 114 -114 33 31 34 88 2 118 -34 32 -89
30 -116 -4z m109 -4 c29 -29 26 -74 -6 -99 -15 -12 -34 -21 -44 -21 -30 0 -70
39 -70 69 0 61 77 94 120 51z"/>
<path d="M1688 1443 c-3 -4 -4 -21 -3 -38 1 -16 -2 -33 -7 -36 -5 -3 -1 -9 10
-11 17 -5 19 -1 14 41 -5 49 -8 57 -14 44z"/>
</g>
</svg>
