<?xml version="1.0" standalone="no"?>
<!DOCTYPE svg PUBLIC "-//W3C//DTD SVG 20010904//EN"
 "http://www.w3.org/TR/2001/REC-SVG-20010904/DTD/svg10.dtd">
<svg version="1.0" xmlns="http://www.w3.org/2000/svg"
 width="338.000000pt" height="338.000000pt" viewBox="0 0 338.000000 338.000000"
 preserveAspectRatio="xMidYMid meet">

<g transform="translate(0.000000,338.000000) scale(0.100000,-0.100000)"
fill="#000000" stroke="none">
<path d="M1135 2565 c-54 -53 -22 -202 60 -285 44 -45 45 -46 33 -85 -6 -22
-12 -80 -12 -130 -1 -112 21 -170 83 -211 23 -14 41 -29 41 -33 0 -3 -16 -16
-35 -29 l-36 -23 -85 72 c-75 64 -90 72 -127 73 l-42 1 2 -50 c1 -47 4 -53 54
-95 29 -25 66 -56 81 -70 l29 -25 -35 -68 c-71 -142 -69 -334 4 -372 76 -39
139 12 141 114 1 57 17 7 18 -56 l1 -51 -57 -36 c-80 -50 -121 -59 -228 -52
-89 7 -91 6 -115 -19 -28 -30 -33 -92 -10 -120 23 -28 90 -55 138 -55 31 0 42
-4 42 -15 0 -12 13 -15 58 -15 76 0 116 13 158 49 19 17 38 31 43 31 5 0 16
-20 25 -45 45 -117 162 -128 201 -18 9 26 19 86 22 133 l5 85 64 1 64 0 0 -71
c0 -136 45 -225 113 -225 47 0 81 30 108 95 l22 55 44 -36 c51 -42 88 -54 166
-54 42 0 58 3 55 13 -3 6 -57 57 -122 111 l-117 100 7 100 c4 56 8 145 8 198
0 83 2 96 14 86 11 -10 17 -9 26 3 6 8 55 29 110 47 l98 32 30 -25 c34 -29 38
-30 61 -12 11 8 19 33 23 75 l7 63 56 33 c47 27 56 37 56 61 0 25 -8 33 -60
59 -59 31 -60 32 -71 87 -6 31 -14 61 -18 68 -15 24 -55 11 -98 -35 l-44 -46
-55 7 -55 7 4 65 c3 36 -1 98 -7 138 l-12 73 44 46 c54 55 77 116 77 200 0 67
-4 77 -36 94 -31 17 -137 -3 -208 -37 -60 -29 -60 -29 -95 -11 -57 29 -140 50
-197 50 -55 0 -173 -32 -212 -57 -22 -14 -28 -12 -81 16 -45 24 -146 50 -194
51 -4 0 -19 -11 -32 -25z m705 -235 c77 -12 110 -41 110 -96 0 -55 -36 -84
-103 -84 -29 0 -78 7 -108 16 -67 20 -112 20 -180 0 -29 -9 -76 -16 -105 -16
-46 0 -55 4 -78 31 -30 35 -32 58 -11 98 15 30 50 48 105 54 77 8 309 6 370
-3z m477 -312 c6 -7 13 -31 17 -53 12 -69 16 -75 77 -105 32 -17 59 -37 59
-45 0 -8 -25 -29 -55 -46 -57 -32 -59 -36 -70 -114 -4 -27 -12 -53 -18 -57 -6
-4 -35 14 -65 39 l-54 46 -50 -11 c-95 -23 -108 -10 -68 68 26 52 25 63 -9
124 -41 70 -33 81 54 72 l68 -7 45 51 c50 54 54 57 69 38z m-1251 -119 c3 -6
-3 -21 -15 -32 l-21 -21 0 32 c0 32 21 45 36 21z m1004 -51 l20 -33 -35 -7
c-19 -4 -51 -4 -71 0 l-35 7 43 32 c24 17 46 32 51 32 4 1 16 -14 27 -31z
m-964 -3 c4 -8 12 -15 19 -15 7 0 15 -7 19 -15 3 -8 12 -15 21 -15 8 0 15 -9
15 -20 0 -14 7 -20 21 -20 14 0 19 -5 17 -17 -5 -25 -29 -28 -35 -4 -3 12 -13
21 -24 21 -11 0 -19 7 -19 15 0 8 -7 15 -15 15 -9 0 -18 7 -21 15 -4 8 -12 15
-20 15 -8 0 -14 9 -14 20 0 23 28 27 36 5z m992 -805 c55 -47 101 -87 101 -91
1 -3 -28 -2 -64 2 -55 5 -72 12 -112 45 -27 21 -50 39 -52 40 -7 6 10 95 18
92 4 -2 53 -41 109 -88z m-760 8 c-2 -6 -25 -30 -51 -51 -40 -34 -55 -40 -112
-46 -81 -9 -80 4 2 34 33 12 80 34 104 48 49 29 63 33 57 15z"/>
<path d="M1421 2307 c-37 -19 -41 -88 -7 -122 14 -14 32 -25 41 -25 18 0 55
35 55 53 0 8 -4 7 -10 -3 -6 -10 -10 -11 -10 -2 0 6 -6 12 -12 12 -7 0 -19 4
-27 9 -11 7 -10 15 8 44 11 19 21 37 21 41 0 10 -33 7 -59 -7z m25 -88 c10
-17 -13 -36 -27 -22 -12 12 -4 33 11 33 5 0 12 -5 16 -11z"/>
<path d="M1816 2289 c-14 -17 -26 -43 -26 -58 0 -30 36 -71 63 -71 30 0 57 37
57 78 -1 35 -2 36 -15 18 -8 -11 -13 -28 -10 -37 6 -18 -10 -35 -19 -21 -3 5
-16 8 -28 7 -20 -2 -23 3 -25 31 -3 28 1 34 17 34 16 0 40 26 40 44 0 17 -31
2 -54 -25z"/>
</g>
</svg>
