<?xml version="1.0" standalone="no"?>
<!DOCTYPE svg PUBLIC "-//W3C//DTD SVG 20010904//EN"
 "http://www.w3.org/TR/2001/REC-SVG-20010904/DTD/svg10.dtd">
<svg version="1.0" xmlns="http://www.w3.org/2000/svg"
 width="626.000000pt" height="626.000000pt" viewBox="0 0 626.000000 626.000000"
 preserveAspectRatio="xMidYMid meet">

<g transform="translate(0.000000,626.000000) scale(0.100000,-0.100000)"
fill="#000000" stroke="none">
<path d="M2283 4756 c-36 -33 -37 -35 -41 -123 -8 -171 42 -300 162 -418 l73
-72 -19 -89 c-10 -49 -21 -136 -25 -194 -10 -172 19 -288 92 -369 l37 -41
-115 0 -115 0 -53 43 c-65 53 -158 85 -194 69 -32 -15 -41 -67 -25 -145 10
-50 19 -68 47 -93 l35 -31 -1 -374 c0 -206 3 -394 8 -419 10 -50 48 -90 85
-90 13 0 31 -12 45 -31 13 -17 38 -37 56 -45 19 -7 50 -25 71 -39 20 -14 55
-28 76 -31 21 -4 37 -12 35 -18 -6 -18 -138 -84 -202 -100 -73 -19 -165 -20
-268 -1 -113 20 -169 -2 -207 -79 -38 -80 -17 -179 49 -226 50 -35 140 -61
221 -63 73 -2 75 -3 75 -27 l0 -25 125 0 c76 1 140 6 163 14 21 7 73 42 115
77 42 35 80 64 83 64 4 0 10 -12 14 -27 13 -55 66 -154 100 -187 95 -96 240
-58 294 77 32 82 41 132 48 283 l6 140 57 -8 c32 -5 81 -5 113 0 l57 9 0 -66
c1 -282 62 -447 177 -481 95 -29 172 19 233 143 22 46 40 91 40 100 0 27 14
21 96 -48 45 -38 96 -70 119 -77 22 -6 94 -12 160 -12 175 -1 176 -3 -100 227
l-225 189 6 41 c3 23 7 47 9 53 2 6 32 13 67 16 36 3 83 15 109 27 114 57 140
73 161 101 12 17 31 30 43 30 11 0 31 7 44 16 49 35 51 55 51 475 l0 393 32
26 c21 18 35 42 44 76 31 116 7 182 -59 169 -68 -14 -104 -31 -154 -72 l-51
-43 -117 0 -117 0 33 32 c39 39 75 114 90 188 15 71 7 270 -16 385 l-17 90 73
75 c120 121 159 218 159 390 0 140 -32 179 -145 179 -113 1 -253 -40 -359
-104 l-58 -34 -60 30 c-255 129 -494 130 -754 3 l-71 -35 -47 31 c-93 63 -253
110 -376 110 -55 0 -64 -3 -97 -34z m1357 -446 c30 -7 66 -19 80 -27 72 -42
102 -158 58 -222 -45 -66 -68 -76 -181 -76 -87 0 -114 4 -187 30 -118 41 -213
41 -325 0 -69 -25 -95 -29 -185 -29 -94 -1 -108 1 -138 22 -63 45 -90 139 -57
201 34 67 92 95 225 111 103 12 641 4 710 -10z m-1472 -795 c6 -6 -58 -85 -69
-85 -11 0 -12 83 -2 94 8 7 62 1 71 -9z m2234 -7 c2 -30 -2 -72 -8 -77 -4 -5
-73 70 -74 81 0 8 25 15 58 17 16 1 22 -5 24 -21z m-2212 -83 c-7 -8 -16 -15
-21 -15 -5 0 -9 7 -9 15 0 9 9 15 21 15 18 0 19 -2 9 -15z m2140 0 c0 -8 -4
-15 -9 -15 -5 0 -14 7 -21 15 -10 13 -9 15 9 15 12 0 21 -6 21 -15z m-45 -40
l25 -24 0 -432 c0 -431 0 -433 -22 -456 -18 -20 -31 -23 -88 -23 -62 0 -68 2
-78 25 -17 36 -17 35 36 35 27 0 57 7 70 16 l22 15 0 383 c0 290 -3 386 -12
399 -12 16 -81 17 -998 15 l-985 -3 -3 -400 c-3 -453 -8 -425 80 -425 50 0 56
-7 38 -41 -9 -16 -22 -19 -76 -19 -56 0 -68 4 -89 25 l-25 24 0 431 0 431 25
24 24 25 1016 0 1016 0 24 -25z m-1393 -282 c10 -9 18 -26 18 -37 0 -19 -33
-81 -77 -146 -9 -14 4 -3 30 25 57 61 71 54 59 -31 -4 -32 -6 -70 -4 -82 3
-23 4 -23 29 10 13 18 38 59 54 91 16 32 36 60 44 63 21 9 54 -14 61 -43 6
-22 -1 -33 -46 -75 -34 -33 -49 -53 -42 -60 11 -11 80 20 101 46 7 9 17 14 21
11 4 -2 15 28 25 67 19 81 34 118 47 118 4 0 8 6 8 14 0 20 25 37 44 30 11 -4
16 -18 16 -45 0 -44 -13 -77 -54 -138 -34 -52 -38 -121 -6 -121 22 0 89 103
100 153 13 64 69 160 88 152 8 -3 18 -5 23 -5 29 0 -7 -120 -56 -184 -26 -34
-32 -79 -15 -106 8 -12 18 -6 54 33 24 27 50 61 56 75 7 15 27 40 47 56 l34
29 26 -20 c15 -10 31 -33 37 -51 l11 -32 31 19 c17 10 40 22 52 25 21 7 21 6
10 -19 -11 -25 -73 -65 -100 -65 -7 0 -19 -13 -26 -28 -24 -56 -95 -62 -123
-11 l-12 23 -19 -27 c-29 -40 -51 -49 -87 -36 -23 8 -34 19 -38 41 l-6 29 -18
-30 c-24 -39 -49 -52 -85 -42 -19 5 -35 19 -45 41 l-16 33 -31 -32 c-40 -43
-95 -52 -121 -22 l-20 22 -20 -20 c-43 -43 -76 -20 -76 52 l0 54 -35 -58 c-35
-59 -47 -68 -66 -49 -12 12 16 162 36 199 5 11 10 28 10 39 0 26 29 82 42 82
6 0 20 -7 30 -17z m753 -623 l-16 -30 -384 0 -384 0 -16 30 -16 30 416 0 416
0 -16 -30z m420 -557 c109 -92 193 -169 186 -171 -22 -7 -212 18 -239 32 -22
11 -83 60 -180 141 -6 5 21 165 28 165 4 0 96 -75 205 -167z m-1405 19 c0 -10
-36 -48 -87 -90 -94 -77 -112 -84 -260 -97 -71 -7 -89 0 -60 22 6 6 44 21 82
33 69 22 206 86 275 129 43 26 50 26 50 3z"/>
<path d="M2825 4281 c-22 -10 -49 -28 -60 -41 l-20 -23 22 12 c33 17 34 15 12
-34 -22 -50 -19 -88 9 -137 21 -36 74 -61 111 -53 34 7 76 50 85 85 3 14 4 20
1 14 -3 -6 -26 -9 -56 -6 -42 3 -54 0 -70 -17 -22 -23 -49 -18 -49 9 0 19 23
43 33 34 3 -4 21 -8 38 -10 18 -2 30 -3 28 -1 -2 1 -13 9 -23 17 -13 10 -17
10 -12 3 8 -14 -3 -17 -21 -5 -9 6 2 29 37 82 43 65 48 76 32 82 -29 11 -55 8
-97 -11z"/>
<path d="M3546 4238 c-40 -53 -46 -68 -46 -109 0 -42 5 -53 38 -89 45 -46 78
-51 130 -20 37 23 62 72 62 122 0 56 -14 63 -44 23 -24 -31 -26 -37 -12 -50 8
-9 13 -22 10 -30 -7 -18 -35 -20 -52 -3 -8 8 -12 9 -12 1 0 -12 -11 -12 -48 1
-17 6 -22 13 -19 27 3 10 1 22 -4 25 -14 8 -10 50 6 64 8 7 24 10 35 7 27 -7
81 70 58 84 -32 21 -56 9 -102 -53z"/>
<path d="M3735 4220 c3 -5 8 -10 11 -10 2 0 4 5 4 10 0 6 -5 10 -11 10 -5 0
-7 -4 -4 -10z"/>
<path d="M2110 3495 c0 -8 5 -15 10 -15 6 0 10 7 10 15 0 8 -4 15 -10 15 -5 0
-10 -7 -10 -15z"/>
<path d="M4365 3499 c-10 -15 3 -25 16 -12 7 7 7 13 1 17 -6 3 -14 1 -17 -5z"/>
<path d="M3056 2944 c-10 -14 -16 -28 -13 -30 2 -3 12 7 21 22 10 14 16 28 13
30 -2 3 -12 -7 -21 -22z"/>
<path d="M3553 2934 c-3 -8 -1 -20 6 -27 8 -8 11 -4 11 16 0 30 -7 35 -17 11z"/>
<path d="M3507 2886 c-13 -33 -8 -56 12 -56 22 0 45 25 36 40 -3 5 -12 10 -20
10 -7 0 -15 5 -17 12 -3 7 -7 5 -11 -6z"/>
</g>
</svg>
