<?xml version="1.0" standalone="no"?>
<!DOCTYPE svg PUBLIC "-//W3C//DTD SVG 20010904//EN"
 "http://www.w3.org/TR/2001/REC-SVG-20010904/DTD/svg10.dtd">
<svg version="1.0" xmlns="http://www.w3.org/2000/svg"
 width="626.000000pt" height="626.000000pt" viewBox="0 0 626.000000 626.000000"
 preserveAspectRatio="xMidYMid meet">

<g transform="translate(0.000000,626.000000) scale(0.100000,-0.100000)"
fill="#000000" stroke="none">
<path d="M1890 4551 c-114 -36 -177 -87 -221 -176 -59 -120 -35 -250 62 -345
101 -98 272 -143 409 -106 40 10 54 9 118 -11 116 -36 158 -27 109 25 -50 54
-51 66 -12 117 90 118 82 271 -21 384 -101 112 -293 161 -444 112z m193 -21
c124 -20 226 -90 273 -186 44 -91 25 -211 -46 -280 -33 -33 -36 -53 -15 -94
14 -28 14 -30 -2 -30 -10 0 -37 9 -60 19 -39 18 -45 18 -90 4 -33 -10 -75 -13
-134 -10 -104 5 -174 34 -244 98 -201 185 -60 465 245 488 8 0 41 -3 73 -9z"/>
<path d="M2021 4254 c-29 -70 -50 -133 -46 -142 10 -26 27 3 78 127 50 121 55
141 33 141 -8 0 -35 -52 -65 -126z"/>
<path d="M1875 4287 c-37 -14 -60 -28 -60 -37 0 -16 89 -69 118 -70 33 0 17
25 -28 43 -51 21 -51 32 -1 41 35 7 61 28 49 39 -9 9 -9 9 -78 -16z"/>
<path d="M2126 4292 c-14 -13 -3 -24 42 -44 l47 -20 -49 -17 c-63 -22 -77 -47
-20 -36 119 22 136 58 45 97 -33 14 -62 23 -65 20z"/>
<path d="M2688 4214 c-45 -24 -58 -62 -58 -172 0 -153 45 -272 141 -372 27
-28 49 -52 49 -53 0 -1 -352 -1 -782 1 -431 1 -798 0 -816 -3 -18 -3 -42 -15
-53 -26 -18 -18 -19 -39 -19 -667 l0 -649 23 -21 c23 -22 27 -22 390 -22 l367
0 0 -95 0 -95 -168 0 c-190 0 -199 -3 -211 -78 l-6 -37 -57 -3 c-48 -3 -61 -7
-79 -30 -18 -23 -20 -37 -17 -94 l4 -68 -137 0 c-102 0 -139 -3 -148 -13 -6
-8 -8 -17 -4 -20 8 -9 4038 -9 4046 0 18 18 -19 33 -82 33 l-66 0 3 69 c4 78
-7 108 -43 117 -22 5 -24 10 -19 49 8 53 -8 85 -42 85 -20 0 -24 4 -19 19 3
11 19 192 35 403 26 346 27 386 13 415 -27 58 -54 63 -317 63 -130 0 -236 2
-236 4 0 2 11 28 24 57 52 114 58 289 17 482 l-19 89 73 71 c112 111 165 236
165 395 0 79 -15 126 -50 157 -19 17 -36 20 -109 19 -131 0 -262 -39 -359
-106 l-44 -31 -72 36 c-193 95 -373 119 -550 73 -54 -14 -136 -44 -181 -66
l-83 -40 -58 35 c-142 85 -370 131 -446 89z m1247 -454 c50 -6 107 -15 128
-21 55 -15 104 -64 119 -120 15 -62 -8 -127 -60 -167 -34 -26 -41 -27 -141
-26 -89 0 -119 5 -191 30 -115 39 -213 38 -320 -1 -106 -38 -259 -46 -308 -15
-28 17 -33 26 -32 53 4 63 0 78 -26 104 l-27 27 19 33 c48 90 141 110 524 112
124 0 266 -4 315 -9z m-849 -197 c16 -16 17 -58 10 -647 -4 -346 -9 -633 -12
-638 -3 -4 -167 -8 -365 -8 l-359 0 0 35 0 35 214 0 c213 0 215 0 243 24 l28
24 -4 414 c-2 233 -7 421 -13 431 -5 10 -20 22 -34 27 -15 6 -281 10 -655 10
-665 0 -676 -1 -693 -45 -3 -8 -6 -201 -6 -428 l-1 -412 26 -22 c25 -22 32
-23 241 -23 l214 0 0 -35 0 -35 -354 0 c-310 0 -355 2 -367 16 -10 12 -14 143
-17 635 -4 584 -4 621 13 639 18 20 35 20 946 20 866 0 929 -1 945 -17z m-305
-343 c18 -10 19 -25 19 -390 0 -208 -3 -385 -6 -394 -5 -14 -34 -16 -219 -16
l-212 0 -6 121 c-3 66 -8 123 -11 126 -3 3 -12 3 -21 0 -13 -6 -15 -46 -15
-312 l0 -305 -170 0 -170 0 0 305 c0 266 -2 306 -15 312 -9 3 -18 4 -20 1 -2
-2 -7 -59 -11 -126 l-7 -122 -207 0 c-147 0 -209 3 -218 12 -9 9 -12 110 -12
395 0 353 1 383 18 392 24 14 1256 15 1283 1z m2109 -335 l23 -24 -27 -373
c-15 -205 -31 -382 -36 -393 -5 -13 -9 33 -9 126 l-1 147 -76 -24 c-253 -81
-641 -122 -1014 -109 l-195 6 3 -83 c2 -56 0 -80 -7 -73 -9 9 -61 631 -61 737
0 35 6 54 20 68 20 20 33 20 688 20 l669 0 23 -25z m-2285 -707 c-3 -29 -9
-72 -12 -95 l-5 -43 -119 0 -119 0 0 88 c0 49 3 92 7 95 3 4 62 7 131 7 l124
0 -7 -52z m973 -183 l37 -25 585 0 585 0 37 25 c20 14 49 25 63 25 23 0 26 -3
23 -32 -4 -37 -23 -48 -31 -18 -7 26 -44 23 -39 -3 3 -16 -42 -17 -668 -17
l-671 0 -9 26 c-6 14 -8 30 -4 35 10 17 55 9 92 -16z m-602 -73 c-13 -13 -17
9 -10 50 l9 43 3 -44 c2 -23 1 -46 -2 -49z m-298 66 c7 -7 12 -22 12 -35 l0
-23 -550 0 -550 0 0 23 c0 13 5 28 12 35 17 17 1059 17 1076 0z m2052 -115
c-14 -2 -56 -13 -94 -25 -86 -25 -252 -44 -466 -55 -208 -10 -1768 -9 -2322 1
l-418 8 0 27 c0 15 5 32 12 39 9 9 391 12 1663 11 907 -1 1639 -4 1625 -6z"/>
<path d="M3229 3726 c-40 -14 -103 -56 -95 -63 2 -2 14 0 25 7 25 13 25 12 6
-33 -19 -47 -19 -81 2 -124 36 -77 122 -93 176 -33 33 37 31 54 -9 58 -16 2
-33 8 -39 13 -12 12 -28 12 -20 -1 3 -5 2 -10 -4 -10 -5 0 -12 6 -14 13 -3 6
-6 2 -6 -9 -1 -31 -27 -50 -46 -34 -8 7 -15 16 -15 21 0 15 32 39 42 33 6 -4
8 -2 5 4 -4 5 13 41 38 79 25 37 45 71 45 74 0 6 -37 19 -50 18 -3 0 -21 -6
-41 -13z"/>
<path d="M3930 3678 c-38 -53 -45 -70 -44 -109 1 -68 53 -128 112 -129 35 0
80 27 97 60 15 29 21 140 8 140 -5 0 -18 -16 -31 -36 -18 -28 -21 -39 -11 -50
6 -7 9 -21 5 -29 -6 -16 -38 -16 -101 -1 -30 7 -31 9 -30 64 l0 57 32 0 c27 0
38 7 59 38 14 21 24 41 21 43 -2 3 -20 7 -38 10 -32 5 -36 1 -79 -58z"/>
<path d="M1770 3085 c0 -25 5 -45 10 -45 6 0 10 20 10 45 0 25 -4 45 -10 45
-5 0 -10 -20 -10 -45z"/>
<path d="M1830 3085 c0 -25 5 -45 10 -45 6 0 10 20 10 45 0 25 -4 45 -10 45
-5 0 -10 -20 -10 -45z"/>
<path d="M1890 3086 c0 -35 4 -46 16 -46 12 0 14 9 12 42 -4 59 -28 63 -28 4z"/>
<path d="M1950 3085 c0 -33 4 -45 15 -45 11 0 15 12 15 45 0 33 -4 45 -15 45
-11 0 -15 -12 -15 -45z"/>
<path d="M2010 3085 c0 -33 4 -45 15 -45 11 0 15 12 15 45 0 33 -4 45 -15 45
-11 0 -15 -12 -15 -45z"/>
<path d="M2070 3085 c0 -33 4 -45 15 -45 11 0 15 12 15 45 0 33 -4 45 -15 45
-11 0 -15 -12 -15 -45z"/>
<path d="M2137 3123 c-4 -3 -7 -24 -7 -45 0 -27 4 -38 15 -38 11 0 15 12 15
45 0 42 -7 54 -23 38z"/>
<path d="M2199 3125 c-5 -32 0 -80 9 -83 8 -2 12 12 12 42 0 25 -4 46 -10 46
-5 0 -10 -2 -11 -5z"/>
<path d="M2260 3085 c0 -25 5 -45 10 -45 6 0 10 20 10 45 0 25 -4 45 -10 45
-5 0 -10 -20 -10 -45z"/>
<path d="M2320 3085 c0 -25 5 -45 10 -45 6 0 10 20 10 45 0 25 -4 45 -10 45
-5 0 -10 -20 -10 -45z"/>
<path d="M2380 3086 c0 -31 4 -46 13 -46 9 0 13 13 11 42 -3 59 -24 62 -24 4z"/>
<path d="M2440 3086 c0 -35 4 -46 16 -46 12 0 14 9 12 42 -4 59 -28 63 -28 4z"/>
<path d="M2500 3085 c0 -33 4 -45 15 -45 11 0 15 12 15 45 0 33 -4 45 -15 45
-11 0 -15 -12 -15 -45z"/>
<path d="M2560 3085 c0 -33 4 -45 15 -45 11 0 15 12 15 45 0 33 -4 45 -15 45
-11 0 -15 -12 -15 -45z"/>
<path d="M4184 2515 c-5 -19 -13 -25 -35 -25 -33 0 -37 -11 -11 -31 15 -12 16
-12 4 2 -11 14 -9 17 13 17 14 0 28 -4 31 -9 3 -5 15 -9 27 -9 22 1 22 1 2 16
-22 17 -26 33 -12 52 6 8 6 12 -2 12 -6 0 -13 -11 -17 -25z"/>
<path d="M4253 2483 c11 -3 16 -11 13 -19 -3 -9 -1 -12 4 -9 19 12 10 35 -12
34 -19 -1 -19 -2 -5 -6z"/>
<path d="M4151 2413 c0 -18 1 -33 4 -33 10 0 65 30 65 35 0 9 -24 0 -40 -14
-13 -13 -16 -11 -21 15 l-7 29 -1 -32z"/>
<path d="M4242 2420 c0 -14 2 -19 5 -12 2 6 2 18 0 25 -3 6 -5 1 -5 -13z"/>
<path d="M4227 2389 c7 -7 15 -10 18 -7 3 3 -2 9 -12 12 -14 6 -15 5 -6 -5z"/>
<path d="M3520 1970 c0 -5 9 -10 20 -10 11 0 20 5 20 10 0 6 -9 10 -20 10 -11
0 -20 -4 -20 -10z"/>
<path d="M1578 1863 c7 -3 16 -2 19 1 4 3 -2 6 -13 5 -11 0 -14 -3 -6 -6z"/>
<path d="M1928 1863 c138 -2 366 -2 505 0 138 1 25 2 -253 2 -278 0 -391 -1
-252 -2z"/>
<path d="M2703 1863 c9 -2 25 -2 35 0 9 3 1 5 -18 5 -19 0 -27 -2 -17 -5z"/>
<path d="M2932 1863 c92 -2 245 -2 340 0 95 1 20 3 -167 3 -187 0 -265 -2
-173 -3z"/>
<path d="M3758 1863 c18 -2 45 -2 60 0 15 2 0 4 -33 4 -33 0 -45 -2 -27 -4z"/>
</g>
</svg>
