<?xml version="1.0" standalone="no"?>
<!DOCTYPE svg PUBLIC "-//W3C//DTD SVG 20010904//EN"
 "http://www.w3.org/TR/2001/REC-SVG-20010904/DTD/svg10.dtd">
<svg version="1.0" xmlns="http://www.w3.org/2000/svg"
 width="2000.000000pt" height="2000.000000pt" viewBox="0 0 2000.000000 2000.000000"
 preserveAspectRatio="xMidYMid meet">

<g transform="translate(0.000000,2000.000000) scale(0.100000,-0.100000)"
fill="#000000" stroke="none">
<path d="M7480 15309 c-73 -14 -163 -65 -214 -119 -94 -100 -117 -195 -118
-480 -1 -253 30 -429 112 -646 101 -269 297 -529 558 -741 64 -53 91 -81 87
-92 -12 -39 -56 -248 -79 -376 -105 -581 -92 -1051 39 -1384 94 -242 221 -388
496 -573 60 -40 108 -75 108 -78 0 -3 -38 -27 -85 -55 -47 -27 -142 -92 -210
-143 l-124 -93 -48 38 c-46 36 -185 153 -486 406 -78 66 -152 129 -166 140
-14 12 -66 55 -115 96 -50 41 -98 81 -107 89 -10 8 -35 16 -57 18 -21 1 -57
12 -81 24 -59 30 -183 60 -249 60 -101 0 -159 -50 -182 -158 -23 -113 -9 -265
35 -382 8 -19 11 -50 9 -67 -11 -71 -45 -39 552 -537 137 -115 277 -233 311
-262 l61 -53 -37 -78 c-142 -298 -174 -641 -94 -1003 95 -426 359 -759 751
-948 46 -22 96 -45 112 -50 37 -13 35 -3 56 -276 l17 -220 -24 -18 c-50 -40
-338 -228 -428 -280 -200 -115 -394 -194 -560 -228 -214 -44 -492 -35 -818 26
-268 50 -385 23 -528 -121 -148 -150 -205 -352 -154 -550 57 -222 205 -358
500 -458 160 -55 265 -70 482 -71 169 -1 185 -3 172 -17 -21 -24 -28 -75 -14
-109 23 -54 47 -60 268 -60 217 0 341 10 530 41 145 24 212 46 284 92 45 29
260 204 433 354 27 24 52 43 56 43 3 0 26 -60 50 -132 47 -145 137 -332 213
-446 232 -345 666 -387 925 -88 125 145 230 460 260 786 14 142 31 516 31 668
0 103 2 113 18 108 53 -17 233 -36 342 -36 109 0 289 19 343 36 15 5 17 -5 17
-108 0 -151 17 -525 31 -668 25 -271 109 -561 211 -722 36 -58 117 -138 182
-180 207 -134 489 -104 678 70 115 106 249 344 323 572 21 63 40 123 44 132 5
14 51 -21 231 -173 124 -104 251 -206 284 -225 131 -78 427 -124 798 -124 211
0 245 6 268 49 13 25 13 77 0 100 -5 10 -157 141 -337 292 -180 151 -386 324
-457 384 -100 84 -610 511 -635 532 -5 3 16 194 26 243 5 27 5 27 121 34 325
19 519 82 635 205 31 34 65 61 76 61 10 0 55 18 99 40 89 45 181 133 203 194
11 30 17 35 58 41 104 14 192 80 234 174 30 67 31 241 2 291 -29 49 -75 73
-137 71 -28 0 -54 1 -58 4 -5 3 0 26 10 52 25 67 27 85 55 468 54 737 125
1691 127 1706 2 9 76 78 165 153 89 76 165 146 168 157 4 11 5 37 4 57 -2 20
7 69 19 107 65 202 43 409 -50 478 -57 43 -196 32 -331 -24 -40 -17 -87 -32
-106 -34 -40 -4 -55 -15 -219 -152 l-122 -104 -365 -2 c-201 -1 -365 -1 -365
1 0 1 16 16 35 33 94 83 205 267 259 429 132 397 123 912 -28 1583 l-33 147
87 69 c298 239 511 543 605 866 51 175 68 303 68 515 1 308 -23 399 -132 504
-102 96 -171 115 -390 104 -454 -21 -896 -167 -1215 -401 l-69 -51 -51 28
c-237 131 -467 227 -718 300 -550 159 -925 140 -1537 -80 -118 -43 -400 -174
-483 -226 l-36 -23 -89 61 c-242 166 -512 281 -803 343 -194 40 -505 67 -590
50z m3625 -1493 c110 -9 243 -21 295 -27 52 -5 131 -14 175 -19 206 -22 347
-88 453 -214 86 -102 118 -207 109 -356 -11 -186 -119 -346 -292 -431 -104
-51 -189 -64 -360 -54 -211 11 -401 49 -606 121 -201 71 -311 95 -464 101
-194 7 -306 -13 -568 -106 -274 -96 -641 -145 -817 -107 -253 54 -430 269
-430 521 0 226 158 421 402 496 70 22 436 61 723 79 99 6 207 12 240 14 149 9
953 -4 1140 -18z m-4236 -2569 c35 -12 64 -25 65 -29 0 -4 -51 -69 -114 -144
l-115 -137 -13 44 c-18 56 -19 203 -3 252 12 36 13 37 64 37 29 -1 81 -11 116
-23z m7180 -9 c19 -55 24 -132 12 -204 -7 -38 -16 -75 -20 -82 -5 -8 -46 33
-124 127 -72 87 -112 143 -105 147 30 18 128 43 175 43 49 1 52 0 62 -31z
m-6953 -260 c14 -22 17 -165 5 -173 -7 -4 -48 -9 -91 -12 -94 -7 -92 -9 -94
105 l-1 76 30 7 c52 12 143 10 151 -3z m6724 -3 c12 -7 12 -131 1 -160 -7 -17
-11 -13 -29 27 -11 26 -42 71 -69 99 l-48 52 68 -6 c37 -4 72 -9 77 -12z
m-257 -73 c55 -28 99 -77 118 -134 11 -36 8 -103 -25 -552 -150 -2028 -137
-1872 -163 -1938 -11 -27 -19 -36 -26 -29 -7 7 -7 14 1 23 12 15 18 457 5 445
-4 -4 -7 -51 -7 -105 -1 -72 -4 -96 -13 -95 -7 2 -13 -6 -13 -17 0 -11 -4 -20
-10 -20 -5 0 -10 -9 -10 -20 0 -11 5 -20 10 -20 6 0 10 -9 10 -20 0 -11 7 -20
15 -20 9 0 15 -9 15 -22 0 -18 -2 -20 -9 -9 -8 12 -12 12 -25 -2 -16 -16 -22
-47 -8 -47 4 0 12 -11 18 -25 9 -18 9 -25 0 -29 -8 -3 -7 -7 3 -14 8 -6 11
-17 6 -32 -4 -12 -9 -19 -13 -16 -3 3 -11 -3 -19 -14 -8 -11 -19 -20 -25 -20
-6 0 -19 -7 -28 -15 -15 -13 -22 -14 -45 -3 -24 11 -29 10 -45 -10 -17 -20
-68 -33 -56 -14 3 5 -20 9 -50 10 -40 1 -54 -2 -51 -11 5 -16 95 -29 128 -18
15 5 32 5 42 -1 11 -5 17 -5 17 0 0 6 -7 13 -16 16 -9 4 -14 9 -11 12 3 3 15
0 27 -6 19 -10 27 -9 51 9 15 12 31 21 36 21 10 0 -55 -48 -91 -67 -19 -10
-26 -11 -20 -2 4 7 -3 5 -16 -4 -17 -12 -36 -15 -64 -11 -31 4 -37 3 -26 -5
12 -8 6 -11 -25 -10 -35 1 -37 2 -15 9 17 5 19 8 7 9 -9 1 -26 -4 -36 -11 -15
-9 -25 -9 -43 0 l-23 12 25 -5 c24 -5 24 -5 3 6 -30 16 -38 39 -13 39 13 0 20
7 20 20 0 18 -6 20 -38 18 -22 -2 -39 -8 -39 -15 0 -8 6 -9 18 -2 27 14 37 10
15 -6 -17 -13 -17 -17 -5 -32 8 -10 0 -6 -17 7 -18 14 -29 31 -26 39 4 9 1 12
-7 7 -7 -5 -36 5 -69 22 -31 16 -75 35 -97 42 -22 7 -44 16 -50 21 -5 5 -25 9
-45 10 -19 0 -44 5 -55 10 -14 6 -6 8 30 4 48 -4 49 -4 20 9 -22 9 -51 11
-105 6 -41 -5 -122 -8 -180 -9 -58 -1 -143 -6 -190 -13 -47 -6 -94 -12 -105
-13 -11 -1 -38 -11 -60 -20 -22 -10 -66 -19 -97 -19 -32 -1 -58 -4 -58 -8 0
-8 14 -11 40 -9 8 0 -1 -7 -20 -17 -19 -9 -41 -22 -48 -29 -7 -7 -20 -9 -29
-6 -12 5 -14 3 -8 -8 5 -8 4 -11 0 -6 -5 4 -10 14 -11 22 -2 12 2 12 17 5 11
-6 19 -7 19 -1 0 15 -30 22 -49 11 -10 -5 -22 -6 -27 -2 -5 4 -2 -2 6 -12 9
-12 10 -17 3 -13 -8 5 -15 -1 -19 -18 -3 -14 -13 -25 -21 -25 -8 0 -11 -5 -7
-11 4 -7 17 0 35 17 34 33 39 24 7 -11 -27 -29 89 -27 -1228 -25 -574 1 -937
5 -925 10 15 7 10 8 -16 4 -27 -4 -52 2 -103 25 -36 16 -69 37 -72 45 -3 9
-10 13 -15 10 -5 -3 -9 -2 -8 3 3 19 -2 34 -10 29 -14 -9 -77 83 -90 129 -6
22 -27 252 -46 510 -20 259 -56 740 -81 1070 -59 791 -62 851 -39 895 36 72
91 114 168 130 23 4 971 7 2107 6 l2065 -1 48 -23z m-6230 -191 c5 -46 5 -87
0 -92 -5 -5 -48 -12 -95 -15 -86 -7 -87 -7 -92 17 -9 44 -14 146 -7 157 9 14
46 20 121 18 l65 -1 8 -84z m222 -144 c4 -23 5 -64 3 -92 l-3 -50 -77 -9 c-42
-5 -83 -6 -91 -3 -18 7 -35 163 -19 179 10 10 148 27 169 20 7 -2 15 -22 18
-45z m228 -216 c8 -62 7 -66 -20 -93 -23 -22 -41 -29 -90 -34 -75 -8 -78 -5
-78 105 0 71 1 75 25 82 14 4 54 7 90 6 l65 -2 8 -64z m5687 -2059 c0 -7 -4
-10 -10 -7 -5 3 -10 16 -10 28 0 18 2 19 10 7 5 -8 10 -21 10 -28z m-837 -29
c-7 -2 -19 -2 -25 0 -7 3 -2 5 12 5 14 0 19 -2 13 -5z m697 -123 c8 -5 11 -10
5 -10 -5 0 -17 5 -25 10 -8 5 -10 10 -5 10 6 0 17 -5 25 -10z m-3970 -91 c51
-41 126 -86 175 -105 48 -18 91 -19 1097 -22 l1047 -2 -11 -25 c-6 -14 -15
-25 -20 -25 -5 0 -6 -6 -3 -12 4 -7 -1 -4 -9 6 -9 11 -16 14 -16 7 0 -7 -4 -9
-10 -6 -6 3 -7 -1 -3 -10 5 -13 7 -14 14 -3 5 7 9 10 9 6 0 -3 3 -14 7 -24 5
-12 3 -15 -6 -9 -10 5 -11 2 -6 -14 l6 -21 -1169 0 c-1149 0 -1232 2 -1232 31
0 5 -6 9 -13 9 -7 0 -24 15 -37 33 -20 25 -25 47 -28 105 -5 97 0 102 102 102
66 0 86 -4 106 -21z m4329 7 c8 -10 10 -38 5 -90 -5 -59 -12 -82 -30 -104 -13
-15 -24 -30 -24 -33 0 -4 -18 -14 -40 -23 -32 -13 -79 -16 -224 -16 l-183 0
-7 31 c-3 17 -3 35 0 40 3 5 1 9 -4 9 -5 0 -13 10 -19 23 -10 21 -8 22 63 33
86 14 159 46 234 103 54 40 56 41 136 41 58 0 85 -4 93 -14z m-839 -1806 c272
-228 556 -466 630 -529 l134 -114 -209 6 c-282 8 -510 43 -610 95 -32 16 -355
278 -524 424 l-34 30 32 191 c17 106 36 225 42 265 11 64 14 71 28 60 9 -7
239 -200 511 -428z m-4355 -35 c8 -64 37 -32 -250 -271 -245 -204 -261 -217
-314 -243 -90 -46 -411 -91 -654 -91 l-148 0 60 50 c53 44 75 55 179 85 319
92 745 291 1032 481 36 23 70 43 76 43 7 1 15 -23 19 -54z"/>
<path d="M9096 13715 c-78 -22 -166 -70 -236 -128 -66 -54 -129 -127 -111
-127 6 0 50 18 97 40 48 22 91 40 96 40 5 0 -5 -17 -21 -37 -101 -127 -123
-342 -51 -490 44 -90 116 -164 192 -199 53 -25 75 -29 143 -28 100 0 171 31
238 103 69 73 116 178 88 195 -4 3 -6 -7 -3 -22 5 -25 4 -26 -12 -9 -21 21 -5
16 -111 32 -49 8 -105 17 -124 21 -37 7 -80 43 -74 61 2 6 -1 14 -7 18 -6 4
-11 1 -9 -6 1 -8 1 -25 0 -39 -2 -21 -4 -19 -16 14 -18 52 -30 63 -51 45 -16
-12 -17 -12 -11 4 4 11 3 16 -3 12 -6 -3 -10 0 -10 7 0 7 -8 1 -18 -14 -9 -16
-21 -28 -25 -28 -5 0 0 15 12 33 11 17 25 31 29 30 5 -1 9 4 9 12 0 12 36 68
223 340 l69 100 -32 14 c-46 20 -211 24 -271 6z m4 -520 c0 -8 -4 -15 -10 -15
-5 0 -7 7 -4 15 4 8 8 15 10 15 2 0 4 -7 4 -15z m50 -4 c0 -5 3 -24 6 -42 l6
-34 -16 29 c-18 32 -21 56 -6 56 6 0 10 -4 10 -9z m-38 -35 c47 -35 44 -117
-6 -147 -42 -26 -69 -24 -105 7 -24 20 -31 34 -31 61 0 69 90 119 142 79z"/>
<path d="M11325 13543 c-71 -102 -136 -196 -143 -209 -16 -30 -18 -163 -3
-234 23 -109 111 -225 213 -281 58 -31 70 -34 148 -34 66 0 96 5 132 22 152
70 239 216 241 403 1 90 -22 202 -44 215 -4 3 -48 -53 -97 -125 -84 -120 -89
-130 -69 -136 67 -20 89 -93 42 -139 -35 -36 -85 -34 -124 5 -22 22 -32 27
-38 18 -4 -7 -8 -16 -8 -20 0 -3 -4 -10 -9 -15 -5 -5 -6 -2 -2 7 4 8 -2 4 -13
-10 -11 -14 -21 -29 -21 -34 0 -6 7 -1 16 10 15 18 15 17 1 -6 -19 -33 -28
-31 -54 16 l-23 39 0 -32 c0 -17 5 -35 10 -38 6 -4 8 -11 5 -16 -4 -5 -13 -3
-21 5 -8 9 -22 12 -32 9 -14 -5 -15 -3 -4 8 6 7 12 25 12 39 0 28 -31 50 -70
50 -11 0 -20 6 -20 13 0 7 -7 4 -15 -7 -18 -24 -20 -14 -4 17 l12 22 -23 -20
c-26 -22 -22 -13 22 53 l29 43 -24 29 c-50 59 -47 148 8 205 26 29 40 35 72
35 26 0 50 -8 67 -21 15 -12 29 -20 30 -18 18 19 186 270 186 277 0 16 -114
42 -186 42 l-69 -1 -130 -186z"/>
<path d="M11920 13515 c-15 -18 -16 -17 38 -44 49 -25 52 -20 16 26 -28 37
-36 40 -54 18z"/>
<path d="M6734 11186 c-9 -23 -1 -48 19 -60 25 -16 52 4 52 40 0 25 -4 29 -33
32 -22 2 -34 -2 -38 -12z"/>
<path d="M13958 11203 c-23 -6 -34 -49 -18 -68 26 -31 70 -11 70 32 0 25 -25
42 -52 36z"/>
<path d="M11414 9746 c-3 -9 -10 -14 -14 -11 -4 3 -13 -8 -18 -24 -9 -25 -8
-29 4 -24 9 3 14 -2 14 -17 0 -13 4 -19 11 -14 6 3 15 0 20 -7 4 -7 11 -10 15
-6 4 4 2 13 -4 19 -16 16 -15 28 2 28 7 0 16 -11 18 -25 3 -14 1 -25 -3 -25
-5 0 -9 -9 -9 -20 0 -13 7 -20 20 -20 11 0 20 1 20 3 0 1 -7 24 -15 51 -18 58
-19 69 -5 61 6 -4 7 1 3 11 -5 14 -8 13 -19 -7 -7 -13 -13 -20 -14 -15 0 6 -6
2 -13 -8 -12 -16 -13 -15 -12 6 1 13 5 30 9 37 4 7 5 15 2 18 -3 3 -8 -2 -12
-11z m-4 -42 c0 -8 -4 -12 -10 -9 -5 3 -10 10 -10 16 0 5 5 9 10 9 6 0 10 -7
10 -16z"/>
<path d="M11437 9740 c-3 -11 -3 -20 -1 -20 2 0 8 9 14 20 6 11 7 20 2 20 -6
0 -12 -9 -15 -20z"/>
<path d="M11491 9665 c0 -29 21 -60 44 -63 18 -2 19 -2 2 8 -9 6 -24 26 -31
43 -11 24 -14 27 -15 12z"/>
<path d="M11338 9625 c-17 -23 -17 -24 0 -22 10 0 18 10 18 24 2 28 3 28 -18
-2z"/>
<path d="M11241 9596 c-85 -15 -104 -39 -65 -85 15 -19 33 -30 41 -27 8 3 11
1 8 -4 -3 -5 3 -20 14 -32 12 -12 21 -29 22 -37 0 -9 5 -3 11 12 9 26 7 31
-33 65 -42 36 -42 37 -18 43 24 7 24 7 1 8 -12 1 -25 -6 -28 -14 -4 -8 -10
-12 -16 -9 -5 4 -5 11 1 18 6 7 8 16 4 20 -10 10 17 26 45 26 27 0 52 -21 52
-44 0 -9 8 -16 20 -16 13 0 20 7 20 20 0 11 -7 20 -15 20 -18 0 -18 5 -5 31 6
10 9 18 8 18 -2 -1 -32 -7 -67 -13z m-31 -96 c0 -5 -2 -10 -4 -10 -3 0 -8 5
-11 10 -3 6 -1 10 4 10 6 0 11 -4 11 -10z m60 -56 c0 -20 -7 -17 -20 6 -9 16
-8 18 5 14 8 -4 15 -12 15 -20z"/>
<path d="M11555 9590 c-6 -10 15 -14 89 -15 22 0 41 -5 43 -10 2 -6 -16 -9
-44 -8 l-48 1 45 -7 45 -7 -43 -8 c-23 -4 -40 -12 -36 -17 3 -5 9 -7 14 -4 13
8 41 -6 34 -17 -4 -6 -10 -5 -15 3 -8 12 -10 12 -18 0 -6 -9 -11 -10 -15 -2
-11 16 -46 13 -46 -4 0 -9 9 -15 25 -15 16 0 25 -6 25 -16 0 -8 -4 -12 -10 -9
-14 8 -23 -40 -16 -78 4 -17 10 -49 13 -70 3 -20 10 -40 16 -44 7 -4 8 0 3 12
-9 25 -20 171 -12 164 4 -4 30 17 58 47 51 54 51 54 33 80 -15 23 -22 26 -56
21 -22 -3 -37 -1 -33 4 3 5 -6 9 -20 9 -14 0 -28 -4 -31 -10z m132 -65 c-11
-7 -26 -11 -35 -7 -14 5 -12 7 8 13 39 11 46 9 27 -6z m-47 -44 c0 -6 -4 -13
-10 -16 -5 -3 -10 1 -10 9 0 9 5 16 10 16 6 0 10 -4 10 -9z"/>
<path d="M11195 9560 c-4 -6 6 -10 22 -10 22 0 25 2 13 10 -19 12 -27 12 -35
0z"/>
<path d="M11330 9460 c0 -11 7 -20 15 -20 8 0 15 9 15 20 0 11 -7 20 -15 20
-8 0 -15 -9 -15 -20z"/>
<path d="M11330 9379 c0 -18 2 -19 15 -5 8 8 15 17 15 20 0 3 -7 6 -15 6 -9 0
-15 -9 -15 -21z"/>
<path d="M11263 9364 c-12 -45 -9 -122 5 -136 10 -10 24 -6 75 20 34 18 52 30
40 26 -18 -4 -23 -1 -23 14 0 11 -7 23 -16 26 -23 9 -24 8 -24 -18 0 -19 -5
-23 -26 -20 -14 1 -27 4 -29 6 -1 2 1 26 5 53 9 56 5 72 -7 29z m91 -93 c3 -5
-12 -16 -34 -25 -50 -20 -63 -20 -30 0 23 14 23 14 3 9 -13 -4 -23 -2 -23 4 0
5 16 8 36 5 22 -3 33 -1 29 6 -3 5 -2 10 4 10 5 0 12 -4 15 -9z"/>
<path d="M11280 9335 c0 -8 5 -15 10 -15 6 0 10 7 10 15 0 8 -4 15 -10 15 -5
0 -10 -7 -10 -15z"/>
<path d="M11478 9268 c14 -14 69 -18 69 -5 0 8 -15 12 -38 12 -21 0 -35 -3
-31 -7z"/>
<path d="M11579 9256 c20 -11 21 -14 7 -19 -10 -4 -15 -3 -12 2 4 5 -4 7 -16
3 -22 -5 -21 -6 6 -15 35 -12 56 4 36 28 -7 8 -20 15 -29 15 -11 -1 -9 -5 8
-14z"/>
<path d="M13479 9188 c-2 -13 -1 -57 2 -98 l5 -75 2 98 c2 93 -2 122 -9 75z"/>
<path d="M13440 9190 c0 -5 -18 -13 -41 -16 -27 -5 -36 -10 -27 -15 9 -6 3 -9
-17 -10 -16 0 -46 -7 -65 -14 -35 -14 -35 -14 20 -8 30 3 63 10 72 14 9 5 27
9 40 9 18 0 20 2 8 10 -8 5 -10 10 -4 10 5 0 15 -5 22 -12 9 -9 12 -6 12 15 0
15 -4 27 -10 27 -5 0 -10 -4 -10 -10z"/>
<path d="M13390 9120 c0 -5 9 -10 20 -10 11 0 20 -7 20 -15 0 -8 5 -15 10 -15
6 0 10 -13 10 -30 0 -16 5 -30 10 -30 11 0 12 19 4 73 -6 34 -9 37 -40 37 -19
0 -34 -4 -34 -10z"/>
<path d="M13200 9110 c0 -5 -8 -10 -17 -10 -10 0 -24 -4 -32 -9 -8 -5 2 -8 28
-7 32 0 41 4 41 18 0 10 -4 18 -10 18 -5 0 -10 -4 -10 -10z"/>
<path d="M13040 9059 c-65 -18 -65 -19 -15 -13 27 3 61 12 75 20 32 17 20 16
-60 -7z"/>
<path d="M13240 9060 c0 -13 7 -20 20 -20 24 0 27 25 4 34 -23 9 -24 8 -24
-14z"/>
<path d="M13108 9043 c7 -3 16 -2 19 1 4 3 -2 6 -13 5 -11 0 -14 -3 -6 -6z"/>
<path d="M12935 9030 c-4 -6 5 -10 20 -10 15 0 24 4 20 10 -3 6 -12 10 -20 10
-8 0 -17 -4 -20 -10z"/>
<path d="M12830 9003 c-30 -8 -73 -18 -95 -23 -39 -9 -39 -9 13 -6 28 2 52 -1
52 -5 0 -5 9 -9 20 -9 13 0 20 7 20 20 0 14 7 20 23 20 12 0 29 5 37 10 13 9
13 10 0 9 -8 0 -40 -7 -70 -16z"/>
<path d="M12920 9000 c-11 -7 -4 -10 25 -10 29 0 36 3 25 10 -8 5 -19 10 -25
10 -5 0 -17 -5 -25 -10z"/>
<path d="M12623 8963 c-13 -2 -23 -9 -23 -14 0 -15 50 -10 66 6 14 13 13 15
-3 14 -10 -1 -28 -4 -40 -6z"/>
<path d="M12915 8960 c8 -13 35 -13 55 0 11 7 5 10 -23 10 -23 0 -36 -4 -32
-10z"/>
<path d="M13483 8900 c0 -36 2 -50 4 -32 2 17 2 47 0 65 -2 17 -4 3 -4 -33z"/>
<path d="M12533 8928 c15 -5 27 -15 27 -21 0 -7 4 -6 9 3 14 21 4 30 -32 29
l-32 -1 28 -10z"/>
<path d="M12453 8913 c9 -2 25 -2 35 0 9 3 1 5 -18 5 -19 0 -27 -2 -17 -5z"/>
<path d="M12337 8899 c7 -7 21 -7 44 -1 l34 10 -44 1 c-32 1 -42 -2 -34 -10z"/>
<path d="M12250 8890 l-45 -7 45 -1 c25 -1 52 3 60 8 18 11 13 11 -60 0z"/>
<path d="M12440 8880 c0 -5 9 -10 20 -10 11 0 20 5 20 10 0 6 -9 10 -20 10
-11 0 -20 -4 -20 -10z"/>
<path d="M12128 8868 c8 -8 17 -8 34 0 22 10 21 11 -11 11 -27 1 -32 -2 -23
-11z"/>
<path d="M11960 8850 c-36 -4 -59 -7 -52 -8 6 -1 12 -12 12 -23 0 -18 5 -20
27 -16 15 3 36 1 46 -5 11 -5 31 -6 45 -3 24 7 20 9 -30 19 -32 7 -60 15 -63
18 -8 8 133 20 145 13 5 -3 10 -1 10 4 0 12 -33 12 -140 1z"/>
<path d="M11790 8832 c-44 -4 -65 -22 -24 -21 38 1 81 14 69 20 -6 2 -26 3
-45 1z"/>
<path d="M11625 8810 c-13 -6 -1 -7 35 -3 30 3 57 7 59 9 9 8 -75 2 -94 -6z"/>
<path d="M13464 8796 c-3 -14 -1 -33 5 -43 8 -15 10 -10 11 25 0 47 -6 55 -16
18z"/>
<path d="M11508 8803 c17 -2 47 -2 65 0 17 2 3 4 -33 4 -36 0 -50 -2 -32 -4z"/>
<path d="M11805 8800 c3 -5 17 -10 31 -10 13 0 24 5 24 10 0 6 -14 10 -31 10
-17 0 -28 -4 -24 -10z"/>
<path d="M9360 8678 c1 -151 17 -139 22 15 2 81 0 107 -9 107 -10 0 -13 -31
-13 -122z"/>
<path d="M9440 8780 c0 -5 10 -10 23 -10 18 0 19 2 7 10 -19 13 -30 13 -30 0z"/>
<path d="M11135 8780 c-66 -4 -183 -8 -260 -10 -77 -1 -162 -6 -190 -10 -36
-6 -16 -7 70 -4 430 14 490 15 475 4 -12 -9 -11 -10 8 -6 61 16 65 18 51 27
-8 5 -18 8 -24 7 -5 -1 -64 -5 -130 -8z"/>
<path d="M9513 8773 c8 -7 119 -5 126 3 2 2 -26 4 -64 4 -38 0 -65 -3 -62 -7z"/>
<path d="M9765 8765 c6 -2 98 -5 205 -7 107 -2 173 -1 145 3 -49 7 -369 11
-350 4z"/>
<path d="M9492 8744 c9 -9 21 -13 27 -10 20 13 11 26 -16 26 -25 0 -26 -1 -11
-16z"/>
<path d="M10438 8753 c23 -2 61 -2 85 0 23 2 4 4 -43 4 -47 0 -66 -2 -42 -4z"/>
<path d="M9863 8743 c15 -2 39 -2 55 0 15 2 2 4 -28 4 -30 0 -43 -2 -27 -4z"/>
<path d="M10898 8743 c18 -2 45 -2 60 0 15 2 0 4 -33 4 -33 0 -45 -2 -27 -4z"/>
<path d="M9770 8720 c18 -12 139 -12 195 -1 30 7 9 9 -85 10 -84 0 -120 -2
-110 -9z"/>
<path d="M10098 8723 c12 -2 32 -2 45 0 12 2 2 4 -23 4 -25 0 -35 -2 -22 -4z"/>
<path d="M10438 8723 c23 -2 61 -2 85 0 23 2 4 4 -43 4 -47 0 -66 -2 -42 -4z"/>
<path d="M10668 8723 c17 -2 47 -2 65 0 17 2 3 4 -33 4 -36 0 -50 -2 -32 -4z"/>
<path d="M10895 8721 c-14 -6 -8 -8 22 -7 23 0 36 4 30 8 -15 9 -26 9 -52 -1z"/>
<path d="M9392 8690 c0 -19 2 -27 5 -17 2 9 2 25 0 35 -3 9 -5 1 -5 -18z"/>
<path d="M13442 8580 c0 -14 2 -19 5 -12 2 6 2 18 0 25 -3 6 -5 1 -5 -13z"/>
<path d="M9375 8550 c-10 -22 -16 -42 -13 -45 3 -3 13 13 23 35 10 22 16 42
13 45 -3 3 -13 -13 -23 -35z"/>
<path d="M11833 8501 c0 -11 5 -17 9 -15 11 7 10 34 -1 34 -6 0 -9 -9 -8 -19z"/>
<path d="M11640 8480 c0 -5 7 -10 15 -10 8 0 15 5 15 10 0 6 -7 10 -15 10 -8
0 -15 -4 -15 -10z"/>
<path d="M11710 8408 c0 -13 -5 -29 -12 -36 -9 -9 -9 -12 0 -12 7 0 12 5 12
10 0 16 32 12 52 -7 33 -30 18 1 -17 36 -35 33 -35 33 -35 9z"/>
<path d="M9376 8346 c-6 -53 12 -125 27 -110 4 4 1 14 -5 22 -7 8 -11 40 -10
78 2 35 1 64 -1 64 -2 0 -7 -24 -11 -54z"/>
<path d="M9404 8305 c-4 -8 -1 -22 6 -30 7 -8 10 -26 6 -39 -3 -14 -1 -28 6
-32 7 -4 8 -3 4 4 -4 7 -4 17 0 24 4 6 8 25 9 42 1 17 0 25 -2 19 -8 -22 -25
-14 -18 7 7 23 -3 27 -11 5z"/>
<path d="M12160 8305 c0 -9 9 -15 21 -15 18 0 19 2 5 15 -8 8 -17 15 -20 15
-3 0 -6 -7 -6 -15z"/>
<path d="M12248 8313 c6 -2 18 -2 25 0 6 3 1 5 -13 5 -14 0 -19 -2 -12 -5z"/>
<path d="M12410 8310 c0 -5 5 -10 10 -10 6 0 10 5 10 10 0 6 -4 10 -10 10 -5
0 -10 -4 -10 -10z"/>
<path d="M12495 8309 c30 -5 54 -4 59 1 7 7 -12 10 -49 9 l-60 -1 50 -9z"/>
<path d="M12682 8307 c18 -19 38 -22 38 -7 0 6 -4 10 -9 10 -5 0 -18 3 -28 7
-17 6 -17 6 -1 -10z"/>
<path d="M11840 8290 c0 -5 5 -10 11 -10 5 0 7 5 4 10 -3 6 -8 10 -11 10 -2 0
-4 -4 -4 -10z"/>
<path d="M12248 8293 c6 -2 18 -2 25 0 6 3 1 5 -13 5 -14 0 -19 -2 -12 -5z"/>
<path d="M11643 8283 c9 -2 25 -2 35 0 9 3 1 5 -18 5 -19 0 -27 -2 -17 -5z"/>
<path d="M12286 8282 c-2 -4 13 -6 35 -4 21 2 39 6 39 8 0 7 -69 4 -74 -4z"/>
<path d="M12165 8270 c-3 -5 15 -7 47 -3 70 8 74 13 10 13 -28 0 -53 -4 -57
-10z"/>
<path d="M12890 8270 c0 -5 5 -10 10 -10 6 0 10 5 10 10 0 6 -4 10 -10 10 -5
0 -10 -4 -10 -10z"/>
<path d="M12797 8239 c7 -7 15 -10 18 -7 3 3 -2 9 -12 12 -14 6 -15 5 -6 -5z"/>
<path d="M11950 8230 c12 -8 12 -10 1 -10 -8 0 -12 -2 -9 -5 3 -3 13 -2 22 1
14 5 15 9 4 15 -7 5 -17 9 -23 9 -5 0 -3 -5 5 -10z"/>
<path d="M12010 8225 l-25 -15 30 6 c17 4 39 11 50 15 18 7 18 8 -5 8 -14 0
-36 -6 -50 -14z"/>
<path d="M12840 8230 c-13 -8 -13 -10 2 -10 9 0 20 5 23 10 8 13 -5 13 -25 0z"/>
<path d="M12888 8233 c6 -2 18 -2 25 0 6 3 1 5 -13 5 -14 0 -19 -2 -12 -5z"/>
<path d="M12900 8202 c19 -10 39 -16 44 -14 5 3 -6 11 -24 18 -47 20 -61 17
-20 -4z"/>
<path d="M11525 8200 c-3 -5 1 -10 9 -10 9 0 16 5 16 10 0 6 -4 10 -9 10 -6 0
-13 -4 -16 -10z"/>
<path d="M9556 8162 c-3 -6 -1 -14 5 -17 15 -10 25 3 12 16 -7 7 -13 7 -17 1z"/>
<path d="M9504 8129 c14 -11 34 -18 44 -16 16 4 16 5 -1 6 -10 0 -25 8 -33 16
-9 8 -20 15 -26 15 -6 0 1 -9 16 -21z"/>
<path d="M9590 8129 c0 -11 64 -16 115 -9 48 6 47 7 -33 11 -45 2 -82 1 -82
-2z"/>
<path d="M11646 8125 c-4 -10 1 -15 14 -15 11 0 20 7 20 15 0 8 -6 15 -14 15
-8 0 -16 -7 -20 -15z"/>
<path d="M11440 8120 c0 -5 15 -9 34 -7 19 1 32 5 29 10 -6 11 -63 9 -63 -3z"/>
<path d="M9252 7938 c3 -33 3 -33 62 -36 67 -3 81 5 72 42 -6 25 -10 26 -72
26 l-65 0 3 -32z"/>
<path d="M9196 7865 c10 -25 42 -38 62 -25 13 8 13 10 2 9 -34 -3 -50 2 -50
16 0 8 -4 15 -10 15 -5 0 -7 -7 -4 -15z"/>
<path d="M9277 7860 c20 -8 72 -5 82 6 2 2 -20 4 -50 3 -41 0 -49 -2 -32 -9z"/>
<path d="M9490 7855 c0 -8 7 -15 15 -15 8 0 15 7 15 15 0 8 -7 15 -15 15 -8 0
-15 -7 -15 -15z"/>
<path d="M9983 7863 c224 -2 590 -2 815 0 224 1 40 2 -408 2 -448 0 -632 -1
-407 -2z"/>
<path d="M11513 7853 c-19 -3 -38 -13 -47 -29 l-16 -24 80 0 c70 0 80 2 79 18
0 10 -3 12 -6 5 -6 -15 -63 -18 -63 -3 0 6 -5 10 -11 10 -5 0 -7 -4 -4 -10 7
-11 -6 -13 -29 -4 -22 8 -20 24 2 22 35 -3 62 2 62 12 0 6 -3 9 -7 8 -5 0 -22
-3 -40 -5z"/>
<path d="M9972 7843 c223 -2 592 -2 820 0 227 1 44 2 -407 2 -451 0 -637 -1
-413 -2z"/>
<path d="M11298 7843 c7 -3 16 -2 19 1 4 3 -2 6 -13 5 -11 0 -14 -3 -6 -6z"/>
<path d="M11390 7829 c0 -5 11 -9 25 -9 14 0 25 2 25 4 0 2 -11 6 -25 8 -14 3
-25 1 -25 -3z"/>
<path d="M9257 7817 c-8 -6 -6 -7 6 -3 9 3 17 1 17 -4 0 -12 30 -13 49 -1 9 6
2 10 -23 13 -20 2 -42 0 -49 -5z"/>
<path d="M9395 7810 c-4 -7 292 -10 882 -10 577 0 883 4 873 10 -21 13 -1747
13 -1755 0z"/>
<path d="M13479 7969 c-17 -17 -20 -28 -14 -53 14 -63 16 -61 -67 -64 -49 -2
-78 1 -78 8 0 17 -117 13 -124 -5 -4 -11 1 -15 19 -15 14 0 25 5 25 10 0 6 9
10 20 10 18 0 25 -11 21 -34 -1 -5 5 -4 13 3 17 14 213 13 222 -1 3 -4 13 -4
22 1 9 5 26 5 37 0 17 -6 16 -8 -10 -9 -16 -1 -78 -1 -137 0 -77 1 -108 -2
-108 -10 0 -9 36 -11 133 -8 108 3 137 7 160 22 30 20 31 24 18 45 -8 12 -12
13 -25 1 -22 -18 -29 -8 -16 24 14 39 13 53 -10 76 -26 26 -74 26 -101 -1z
m118 -123 c4 -3 12 -1 20 5 8 8 13 8 13 1 0 -15 -22 -20 -45 -12 -11 4 -39 6
-63 5 -23 -2 -40 0 -37 5 5 9 103 5 112 -4z"/>
<path d="M13445 7870 c-3 -5 -1 -10 4 -10 6 0 11 5 11 10 0 6 -2 10 -4 10 -3
0 -8 -4 -11 -10z"/>
</g>
</svg>
