<?xml version="1.0" standalone="no"?>
<!DOCTYPE svg PUBLIC "-//W3C//DTD SVG 20010904//EN"
 "http://www.w3.org/TR/2001/REC-SVG-20010904/DTD/svg10.dtd">
<svg version="1.0" xmlns="http://www.w3.org/2000/svg"
 width="900.000000pt" height="900.000000pt" viewBox="0 0 900.000000 900.000000"
 preserveAspectRatio="xMidYMid meet">

<g transform="translate(0.000000,900.000000) scale(0.100000,-0.100000)"
fill="#000000" stroke="none">
<path d="M7510 7465 c-89 -51 -375 -116 -595 -135 -166 -15 -268 -35 -386 -76
-213 -74 -398 -186 -558 -339 -89 -85 -185 -191 -223 -245 l-18 -25 -40 45
c-49 54 -90 133 -90 173 0 15 14 60 31 100 61 142 49 248 -37 327 -92 85 -251
127 -518 137 -411 15 -926 -65 -1256 -194 -310 -122 -597 -336 -763 -570 -121
-171 -212 -391 -259 -625 -29 -150 -32 -455 -5 -593 51 -260 148 -483 297
-684 l61 -82 -68 6 c-37 3 -212 14 -388 25 -176 11 -536 33 -799 50 -573 36
-576 36 -604 19 -29 -18 -46 -71 -38 -120 3 -21 57 -231 120 -466 107 -400
166 -635 184 -727 9 -45 -50 -18 487 -222 182 -69 334 -130 340 -135 5 -5 16
-9 25 -9 11 0 12 2 3 8 -8 5 5 15 38 26 40 15 65 17 117 12 94 -10 153 -26
145 -40 -5 -8 -2 -7 8 1 21 17 143 -39 224 -102 47 -37 67 -60 81 -97 l18 -47
161 -62 c148 -56 163 -60 200 -51 22 6 42 9 46 6 4 -2 10 -30 14 -61 17 -146
70 -361 141 -574 4 -12 -12 -31 -54 -63 -146 -112 -180 -205 -92 -251 75 -39
305 -5 461 67 104 49 138 90 253 313 54 105 119 225 144 268 95 159 192 237
296 237 109 -1 266 -80 450 -226 116 -92 169 -146 400 -407 174 -195 208 -223
326 -268 102 -39 228 -61 350 -61 132 -1 188 12 232 51 29 26 30 29 19 62 -14
42 -59 88 -121 123 l-45 25 -1 318 c-1 402 -18 577 -100 990 l-37 183 54 58
c60 64 146 212 190 327 44 112 59 201 59 343 0 279 -68 516 -190 663 l-39 46
260 444 c142 244 262 459 265 477 9 48 -10 102 -50 141 -29 28 -45 35 -89 39
-59 5 -97 -9 -133 -50 -12 -12 -121 -194 -242 -403 -122 -209 -228 -389 -236
-400 -10 -13 -6 6 10 54 90 271 102 684 28 925 -5 16 -3 18 17 12 74 -22 247
-45 340 -46 192 0 336 34 556 131 172 76 290 115 397 131 77 11 85 14 91 36 5
21 -6 35 -72 97 -88 82 -128 149 -140 235 -7 46 -12 56 -33 63 -22 7 -34 0
-95 -59 -196 -187 -395 -305 -612 -365 -131 -36 -429 -37 -520 -2 -16 6 -53
74 -53 96 0 24 181 190 272 250 241 159 447 224 743 234 191 6 333 -9 520 -53
161 -38 158 -38 172 -15 10 17 8 29 -15 78 -50 109 -41 273 24 420 23 53 23
57 8 75 -20 21 -31 22 -64 3z m-1920 -1397 c0 -71 -29 -306 -51 -418 -76 -388
-240 -594 -534 -671 -102 -27 -323 -36 -461 -20 -54 6 -171 26 -259 43 -149
28 -165 30 -232 19 -71 -13 -85 -19 -206 -106 -64 -46 -133 -65 -232 -65 -181
0 -362 85 -511 241 -71 75 -101 118 -88 127 174 126 475 270 883 422 418 155
882 302 1249 396 241 61 291 71 380 73 l62 1 0 -42z m-3373 -1817 c144 -105
117 -99 305 -70 48 7 90 10 94 7 3 -4 -40 -71 -96 -150 -116 -163 -109 -126
-67 -346 21 -105 22 -122 9 -117 -8 3 -81 53 -162 110 -164 117 -154 114 -299
89 -51 -9 -95 -13 -98 -10 -3 3 37 65 89 138 52 73 98 139 102 145 4 7 -4 73
-18 146 -15 74 -26 144 -26 157 0 26 -18 37 167 -99z m1333 88 c27 -17 50 -34
50 -38 0 -10 -100 -125 -113 -130 -7 -2 -8 15 -4 50 4 30 7 75 7 102 0 26 2
47 5 47 3 0 27 -14 55 -31z m761 -492 c19 -15 35 -87 53 -247 22 -180 15 -250
-21 -236 -8 3 -11 2 -8 -4 3 -5 -20 -21 -52 -36 -51 -23 -67 -26 -139 -22 -71
4 -89 9 -137 38 -30 18 -60 44 -66 57 -13 29 -44 30 -70 2 -11 -13 -24 -18
-32 -14 -8 5 -10 4 -5 -3 8 -14 -73 -56 -127 -66 -37 -7 -85 12 -70 28 4 4 0
4 -10 0 -23 -8 -33 21 -19 58 5 15 6 26 1 23 -9 -6 -3 15 16 52 7 13 16 19 20
15 5 -4 5 -2 1 5 -14 25 105 161 203 230 34 25 48 30 58 21 10 -8 12 -7 8 4
-18 47 346 134 396 95z"/>
<path d="M4568 5420 c-55 -17 -89 -45 -115 -98 -21 -42 -24 -61 -19 -95 23
-145 194 -208 300 -109 36 34 56 80 56 132 l0 41 -48 -7 c-79 -10 -112 34 -88
119 8 26 7 27 -25 26 -19 0 -46 -4 -61 -9z"/>
<path d="M3520 5142 c-43 -23 -74 -80 -65 -121 9 -42 56 -82 104 -88 36 -5 44
-2 76 30 30 30 35 42 35 81 0 51 1 50 -34 34 -22 -9 -29 -8 -46 7 -11 10 -20
31 -20 47 0 33 -4 34 -50 10z"/>
<path d="M2239 4045 c-14 -8 -32 -28 -39 -46 -12 -27 -11 -36 1 -58 30 -53
107 -53 134 -1 21 41 19 58 -14 91 -33 32 -44 34 -82 14z"/>
<path d="M3900 3501 c0 -10 19 -25 25 -20 1 2 -3 10 -11 17 -8 7 -14 8 -14 3z"/>
<path d="M4030 3376 c0 -2 7 -7 16 -10 8 -3 12 -2 9 4 -6 10 -25 14 -25 6z"/>
<path d="M2900 2979 c0 -5 5 -7 10 -4 6 3 10 8 10 11 0 2 -4 4 -10 4 -5 0 -10
-5 -10 -11z"/>
<path d="M2525 2900 c-3 -6 1 -7 9 -4 18 7 21 14 7 14 -6 0 -13 -4 -16 -10z"/>
<path d="M2540 2886 c0 -2 8 -10 18 -17 15 -13 16 -12 3 4 -13 16 -21 21 -21
13z"/>
<path d="M2637 2859 c7 -7 15 -10 18 -7 3 3 -2 9 -12 12 -14 6 -15 5 -6 -5z"/>
<path d="M2962 2834 c-7 -8 -8 -14 -3 -14 10 0 25 19 20 25 -2 1 -10 -3 -17
-11z"/>
</g>
</svg>
